<svg viewBox="0 0 400 300" xmlns="http://www.w3.org/2000/svg">
  <defs>
    <linearGradient id="parkGrad" x1="0%" y1="0%" x2="100%" y2="100%">
      <stop offset="0%" style="stop-color:#10B981;stop-opacity:1" />
      <stop offset="100%" style="stop-color:#047857;stop-opacity:1" />
    </linearGradient>
  </defs>
  
  <!-- Background -->
  <rect width="400" height="300" fill="#F0FDF4"/>
  
  <!-- Buildings representing technopark -->
  <rect x="50" y="120" width="60" height="120" fill="url(#parkGrad)" rx="5"/>
  <rect x="130" y="100" width="60" height="140" fill="#3B82F6" rx="5"/>
  <rect x="210" y="110" width="60" height="130" fill="url(#parkGrad)" rx="5"/>
  <rect x="290" y="90" width="60" height="150" fill="#3B82F6" rx="5"/>
  
  <!-- Windows -->
  <rect x="60" y="140" width="8" height="12" fill="#FFF" opacity="0.8"/>
  <rect x="75" y="140" width="8" height="12" fill="#FFF" opacity="0.8"/>
  <rect x="90" y="140" width="8" height="12" fill="#FFF" opacity="0.8"/>
  <rect x="60" y="170" width="8" height="12" fill="#FFF" opacity="0.8"/>
  <rect x="75" y="170" width="8" height="12" fill="#FFF" opacity="0.8"/>
  <rect x="90" y="170" width="8" height="12" fill="#FFF" opacity="0.8"/>
  
  <!-- Innovation symbols -->
  <circle cx="200" cy="50" r="25" fill="#FF5722" opacity="0.9"/>
  <polygon points="200,35 205,45 195,45" fill="#FFF"/>
  <text x="200" y="55" text-anchor="middle" fill="white" font-family="Arial" font-size="12" font-weight="bold">💡</text>
  
  <!-- Tech elements -->
  <rect x="20" y="260" width="360" height="25" fill="#E5E7EB" rx="12"/>
  <rect x="25" y="265" width="300" height="15" fill="url(#parkGrad)" rx="7"/>
  
  <!-- Title -->
  <text x="200" y="25" text-anchor="middle" fill="#047857" font-family="Arial" font-size="16" font-weight="bold">Teknopark İnovasyon</text>
  <text x="200" y="280" text-anchor="middle" fill="#64748B" font-family="Arial" font-size="12">AR-GE + Girişimcilik</text>
</svg>